<svg id="Capa_1" enable-background="new 0 0 512 512" height="512" viewBox="0 0 512 512" width="512" xmlns="http://www.w3.org/2000/svg"><g><g><path d="m468.293 496.832c-4.268 0-7.726-3.459-7.726-7.726v-37.254c0-4.267 3.459-7.726 7.726-7.726s7.726 3.459 7.726 7.726v37.254c0 4.267-3.459 7.726-7.726 7.726z" fill="#407093"/></g><g><path d="m0 457.886v33.301c0 11.495 9.318 20.813 20.813 20.813h341.333c11.495 0 20.813-9.318 20.813-20.813v-33.301z" fill="#90d8f9"/><path d="m0 424.585v33.301c0 11.495 9.318 20.813 20.813 20.813h341.333c11.495 0 20.813-9.318 20.813-20.813v-33.301z" fill="#b1e4f9"/><path d="m382.959 97.821v-49.951c0-11.495-9.318-20.813-20.813-20.813h-341.333c-11.495 0-20.813 9.318-20.813 20.813v49.951z" fill="#9d6b6b"/><path d="m362.146 27.057h-26.016c11.495 0 20.813 9.318 20.813 20.813v49.951h26.016v-49.951c0-11.495-9.318-20.813-20.813-20.813z" fill="#8b5e5e"/><path d="m0 97.821v326.764c0 11.495 9.318 20.813 20.813 20.813h341.333c11.495 0 20.813-9.318 20.813-20.813v-326.764z" fill="#e4f6ff"/><path d="m356.943 97.821v326.764c0 11.495-9.318 20.813-20.813 20.813h26.016c11.495 0 20.813-9.318 20.813-20.813v-326.764z" fill="#d3effb"/><g><path d="m295.545 43.707v-33.3c0-5.748 4.659-10.407 10.406-10.407h12.488c5.747 0 10.407 4.659 10.407 10.407v33.301c0 5.747-4.659 10.407-10.407 10.407h-12.488c-5.747-.001-10.406-4.66-10.406-10.408z" fill="#e4f6ff"/></g><g><path d="m215.068 43.707v-33.3c0-5.748 4.659-10.407 10.406-10.407h12.488c5.747 0 10.407 4.659 10.407 10.407v33.301c0 5.747-4.659 10.407-10.407 10.407h-12.488c-5.747-.001-10.406-4.66-10.406-10.408z" fill="#e4f6ff"/></g><g><path d="m134.591 43.707v-33.3c0-5.748 4.659-10.407 10.406-10.407h12.488c5.747 0 10.406 4.659 10.406 10.407v33.301c0 5.747-4.659 10.407-10.406 10.407h-12.488c-5.747-.001-10.406-4.66-10.406-10.408z" fill="#e4f6ff"/></g><g><path d="m54.114 43.707v-33.3c0-5.748 4.659-10.407 10.406-10.407h12.488c5.747 0 10.407 4.659 10.407 10.407v33.301c0 5.747-4.659 10.407-10.407 10.407h-12.488c-5.747-.001-10.406-4.66-10.406-10.408z" fill="#e4f6ff"/></g></g><g><path d="m501.594 72.846h-66.602v-29.139c0-11.495 9.318-20.813 20.813-20.813h24.976c11.495 0 20.813 9.318 20.813 20.813z" fill="#df75a5"/><path d="m480.78 22.894h-22.894c11.495 0 20.813 9.318 20.813 20.813v29.138h22.894v-29.138c.001-11.494-9.318-20.813-20.813-20.813z" fill="#dd5ca2"/><path d="m495.028 439.007-17.97 28.078c-4.093 6.396-13.437 6.396-17.53 0l-17.97-28.078c-4.287-6.699-6.566-14.485-6.566-22.439v-310.422h66.602v310.422c0 7.953-2.279 15.74-6.566 22.439z" fill="#ffe07d"/><path d="m478.699 106.146v310.422c0 7.953-2.278 15.74-6.566 22.439l-15.288 23.888 2.682 4.191c4.093 6.396 13.437 6.396 17.53 0l17.97-28.078c4.287-6.699 6.566-14.485 6.566-22.439v-310.423z" fill="#ffd064"/><path d="m503.675 106.146h-70.764c-4.598 0-8.325-3.727-8.325-8.325v-16.65c0-4.598 3.727-8.325 8.325-8.325h70.764c4.598 0 8.325 3.727 8.325 8.325v16.65c0 4.598-3.727 8.325-8.325 8.325z" fill="#4a80aa"/></g><g><g><path d="m328.845 164.865h-222.699c-4.267 0-7.726-3.459-7.726-7.726s3.459-7.726 7.726-7.726h222.699c4.268 0 7.726 3.459 7.726 7.726s-3.458 7.726-7.726 7.726z" fill="#b1e4f9"/></g><g><path d="m328.845 248.117h-274.731c-4.267 0-7.726-3.459-7.726-7.726s3.459-7.726 7.726-7.726h274.731c4.268 0 7.726 3.459 7.726 7.726s-3.458 7.726-7.726 7.726z" fill="#b1e4f9"/></g><g><path d="m328.845 206.49h-274.731c-4.267 0-7.726-3.459-7.726-7.726s3.459-7.726 7.726-7.726h274.731c4.268 0 7.726 3.459 7.726 7.726s-3.458 7.726-7.726 7.726z" fill="#b1e4f9"/></g><g><path d="m328.845 289.742h-274.731c-4.267 0-7.726-3.459-7.726-7.726s3.459-7.726 7.726-7.726h274.731c4.268 0 7.726 3.459 7.726 7.726s-3.458 7.726-7.726 7.726z" fill="#b1e4f9"/></g></g></g></svg>